
<!-- Generator: visioncortex VTracer 0.6.4 -->
<svg version="1.1" xmlns="http://www.w3.org/2000/svg" viewBox="0 0 736 515" preserveAspectRatio="xMidYMid meet">
<path d="M0,0 L736,0 L736,515 L0,515 Z M554,138 L554,139 L552,139 L552,140 L550,140 L550,141 L548,141 L548,142 L547,142 L547,143 L546,143 L546,144 L544,144 L544,145 L543,145 L543,146 L542,146 L542,147 L541,147 L541,148 L540,148 L540,149 L538,149 L538,150 L537,150 L537,151 L536,151 L536,152 L532,152 L532,151 L529,151 L529,150 L526,150 L526,149 L523,149 L523,148 L520,148 L520,147 L516,147 L516,146 L512,146 L512,145 L505,145 L505,144 L504,144 L504,145 L501,145 L501,146 L502,146 L502,148 L503,148 L503,149 L504,149 L504,150 L506,150 L506,151 L507,151 L507,152 L509,152 L509,153 L511,153 L511,154 L512,154 L512,155 L513,155 L513,156 L515,156 L515,157 L516,157 L516,158 L517,158 L517,159 L518,159 L518,160 L519,160 L519,162 L520,162 L520,165 L519,165 L519,166 L518,166 L518,167 L517,167 L517,168 L516,168 L516,169 L515,169 L515,170 L514,170 L514,171 L513,171 L513,172 L512,172 L512,173 L509,173 L509,172 L507,172 L507,171 L503,171 L503,170 L498,170 L498,172 L499,172 L499,174 L500,174 L500,175 L501,175 L501,176 L502,176 L502,177 L503,177 L503,178 L504,178 L504,181 L503,181 L503,186 L509,186 L509,185 L510,185 L510,186 L511,186 L511,188 L512,188 L512,189 L513,189 L513,190 L514,190 L514,191 L515,191 L515,192 L516,192 L516,193 L518,193 L518,184 L517,184 L517,180 L518,180 L518,179 L520,179 L520,178 L521,178 L521,177 L522,177 L522,176 L523,176 L523,175 L525,175 L525,174 L526,174 L526,173 L529,173 L529,174 L530,174 L530,175 L531,175 L531,176 L532,176 L532,177 L533,177 L533,179 L534,179 L534,181 L535,181 L535,183 L536,183 L536,186 L537,186 L537,188 L538,188 L538,190 L539,190 L539,192 L540,192 L540,193 L541,193 L541,194 L542,194 L542,195 L543,195 L543,194 L544,194 L544,174 L543,174 L543,167 L542,167 L542,161 L541,161 L541,160 L542,160 L542,159 L544,159 L544,158 L545,158 L545,157 L546,157 L546,156 L548,156 L548,155 L549,155 L549,154 L550,154 L550,153 L551,153 L551,152 L553,152 L553,151 L554,151 L554,150 L555,150 L555,149 L556,149 L556,147 L557,147 L557,146 L558,146 L558,145 L559,145 L559,143 L560,143 L560,138 Z M221,153 L221,154 L220,154 L220,158 L226,158 L226,159 L237,159 L237,160 L240,160 L240,161 L242,161 L242,162 L244,162 L244,163 L245,163 L245,164 L246,164 L246,166 L247,166 L247,168 L248,168 L248,174 L249,174 L249,253 L250,253 L250,254 L251,254 L251,255 L252,255 L252,256 L253,256 L253,257 L255,257 L255,258 L257,258 L257,259 L259,259 L259,260 L262,260 L262,261 L264,261 L264,262 L268,262 L268,263 L274,263 L274,264 L283,264 L283,265 L285,265 L285,264 L286,264 L286,172 L287,172 L287,170 L288,170 L288,169 L290,169 L290,168 L296,168 L296,167 L324,167 L324,168 L333,168 L333,169 L338,169 L338,170 L343,170 L343,171 L347,171 L347,172 L351,172 L351,173 L354,173 L354,174 L357,174 L357,175 L359,175 L359,176 L362,176 L362,177 L364,177 L364,178 L366,178 L366,179 L368,179 L368,180 L370,180 L370,181 L372,181 L372,182 L374,182 L374,183 L375,183 L375,184 L377,184 L377,185 L378,185 L378,186 L380,186 L380,187 L381,187 L381,188 L383,188 L383,189 L384,189 L384,190 L385,190 L385,191 L387,191 L387,192 L388,192 L388,193 L389,193 L389,194 L390,194 L390,195 L391,195 L391,196 L392,196 L392,197 L393,197 L393,198 L394,198 L394,199 L395,199 L395,200 L396,200 L396,201 L397,201 L397,202 L398,202 L398,203 L399,203 L399,205 L400,205 L400,206 L401,206 L401,208 L402,208 L402,209 L403,209 L403,210 L404,210 L404,212 L405,212 L405,214 L406,214 L406,215 L407,215 L407,217 L408,217 L408,219 L409,219 L409,221 L410,221 L410,223 L411,223 L411,225 L412,225 L412,226 L413,226 L413,225 L415,225 L415,224 L417,224 L417,223 L419,223 L419,222 L421,222 L421,221 L423,221 L423,220 L425,220 L425,219 L427,219 L427,218 L429,218 L429,217 L431,217 L431,216 L433,216 L433,215 L435,215 L435,214 L437,214 L437,213 L439,213 L439,212 L441,212 L441,211 L443,211 L443,210 L445,210 L445,209 L447,209 L447,208 L446,208 L446,206 L445,206 L445,204 L444,204 L444,203 L443,203 L443,201 L442,201 L442,200 L441,200 L441,198 L440,198 L440,197 L439,197 L439,195 L438,195 L438,194 L437,194 L437,193 L436,193 L436,192 L435,192 L435,190 L434,190 L434,189 L433,189 L433,188 L432,188 L432,187 L431,187 L431,186 L430,186 L430,185 L429,185 L429,184 L428,184 L428,183 L427,183 L427,182 L426,182 L426,181 L425,181 L425,180 L423,180 L423,179 L422,179 L422,178 L421,178 L421,177 L420,177 L420,176 L418,176 L418,175 L417,175 L417,174 L415,174 L415,173 L414,173 L414,172 L412,172 L412,171 L410,171 L410,170 L409,170 L409,169 L407,169 L407,168 L405,168 L405,167 L403,167 L403,166 L401,166 L401,165 L398,165 L398,164 L396,164 L396,163 L393,163 L393,162 L390,162 L390,161 L387,161 L387,160 L384,160 L384,159 L379,159 L379,158 L375,158 L375,157 L370,157 L370,156 L364,156 L364,155 L356,155 L356,154 L342,154 L342,153 L294,153 L294,154 L248,154 L248,153 Z M492,190 L492,191 L491,191 L491,192 L489,192 L489,193 L487,193 L487,194 L485,194 L485,195 L484,195 L484,196 L482,196 L482,197 L480,197 L480,198 L478,198 L478,199 L476,199 L476,200 L475,200 L475,201 L473,201 L473,202 L471,202 L471,203 L469,203 L469,204 L467,204 L467,205 L466,205 L466,206 L464,206 L464,207 L462,207 L462,208 L460,208 L460,209 L458,209 L458,210 L456,210 L456,211 L455,211 L455,212 L453,212 L453,213 L451,213 L451,214 L449,214 L449,215 L447,215 L447,216 L445,216 L445,217 L443,217 L443,218 L441,218 L441,219 L439,219 L439,220 L437,220 L437,221 L436,221 L436,222 L434,222 L434,223 L432,223 L432,224 L430,224 L430,225 L428,225 L428,226 L426,226 L426,227 L424,227 L424,228 L422,228 L422,229 L420,229 L420,230 L418,230 L418,231 L416,231 L416,232 L413,232 L413,233 L411,233 L411,234 L409,234 L409,235 L407,235 L407,236 L405,236 L405,237 L403,237 L403,238 L401,238 L401,239 L398,239 L398,240 L396,240 L396,241 L394,241 L394,242 L392,242 L392,243 L389,243 L389,244 L387,244 L387,245 L385,245 L385,246 L382,246 L382,247 L380,247 L380,248 L378,248 L378,249 L375,249 L375,250 L373,250 L373,251 L370,251 L370,252 L368,252 L368,253 L365,253 L365,254 L362,254 L362,255 L360,255 L360,256 L357,256 L357,257 L354,257 L354,258 L352,258 L352,259 L348,259 L348,260 L345,260 L345,261 L342,261 L342,262 L339,262 L339,263 L336,263 L336,264 L332,264 L332,265 L328,265 L328,266 L324,266 L324,267 L320,267 L320,268 L315,268 L315,269 L309,269 L309,270 L303,270 L303,271 L292,271 L292,272 L286,272 L286,271 L274,271 L274,270 L268,270 L268,269 L264,269 L264,268 L261,268 L261,267 L259,267 L259,266 L256,266 L256,265 L254,265 L254,264 L253,264 L253,263 L251,263 L251,262 L249,262 L249,261 L248,261 L248,260 L246,260 L246,259 L245,259 L245,258 L244,258 L244,257 L243,257 L243,256 L242,256 L242,255 L241,255 L241,254 L240,254 L240,253 L239,253 L239,252 L238,252 L238,251 L237,251 L237,249 L236,249 L236,248 L235,248 L235,255 L236,255 L236,260 L237,260 L237,263 L238,263 L238,266 L239,266 L239,268 L240,268 L240,269 L241,269 L241,271 L242,271 L242,272 L243,272 L243,273 L244,273 L244,274 L245,274 L245,275 L246,275 L246,276 L247,276 L247,277 L248,277 L248,278 L250,278 L250,279 L252,279 L252,280 L253,280 L253,281 L256,281 L256,282 L259,282 L259,283 L263,283 L263,284 L269,284 L269,285 L292,285 L292,284 L301,284 L301,283 L306,283 L306,282 L312,282 L312,281 L316,281 L316,280 L320,280 L320,279 L324,279 L324,278 L328,278 L328,277 L332,277 L332,276 L335,276 L335,275 L338,275 L338,274 L342,274 L342,273 L345,273 L345,272 L348,272 L348,271 L351,271 L351,270 L354,270 L354,269 L356,269 L356,268 L359,268 L359,267 L362,267 L362,266 L365,266 L365,265 L367,265 L367,264 L370,264 L370,263 L372,263 L372,262 L375,262 L375,261 L377,261 L377,260 L380,260 L380,259 L382,259 L382,258 L384,258 L384,257 L387,257 L387,256 L389,256 L389,255 L392,255 L392,254 L394,254 L394,253 L396,253 L396,252 L398,252 L398,251 L400,251 L400,250 L402,250 L402,249 L405,249 L405,248 L407,248 L407,247 L409,247 L409,246 L411,246 L411,245 L413,245 L413,244 L415,244 L415,243 L417,243 L417,242 L419,242 L419,241 L421,241 L421,240 L423,240 L423,239 L425,239 L425,238 L427,238 L427,237 L429,237 L429,236 L431,236 L431,235 L433,235 L433,234 L435,234 L435,233 L437,233 L437,232 L439,232 L439,231 L441,231 L441,232 L440,232 L440,233 L439,233 L439,234 L438,234 L438,235 L437,235 L437,236 L435,236 L435,237 L434,237 L434,238 L433,238 L433,239 L432,239 L432,240 L431,240 L431,241 L430,241 L430,242 L428,242 L428,243 L427,243 L427,244 L426,244 L426,245 L425,245 L425,246 L424,246 L424,247 L422,247 L422,248 L421,248 L421,249 L420,249 L420,250 L419,250 L419,251 L417,251 L417,252 L416,252 L416,253 L415,253 L415,254 L413,254 L413,255 L412,255 L412,256 L411,256 L411,257 L409,257 L409,258 L408,258 L408,259 L407,259 L407,260 L405,260 L405,261 L404,261 L404,262 L403,262 L403,263 L401,263 L401,264 L400,264 L400,265 L398,265 L398,266 L397,266 L397,267 L396,267 L396,268 L394,268 L394,269 L393,269 L393,270 L391,270 L391,271 L389,271 L389,272 L388,272 L388,273 L387,273 L387,274 L385,274 L385,275 L383,275 L383,276 L382,276 L382,277 L380,277 L380,278 L379,278 L379,279 L377,279 L377,280 L375,280 L375,281 L374,281 L374,282 L372,282 L372,283 L371,283 L371,284 L369,284 L369,285 L367,285 L367,286 L366,286 L366,287 L364,287 L364,288 L362,288 L362,289 L360,289 L360,290 L358,290 L358,291 L356,291 L356,292 L355,292 L355,293 L353,293 L353,294 L351,294 L351,295 L349,295 L349,296 L347,296 L347,297 L345,297 L345,298 L343,298 L343,299 L341,299 L341,300 L339,300 L339,301 L337,301 L337,302 L335,302 L335,303 L333,303 L333,304 L331,304 L331,305 L329,305 L329,306 L326,306 L326,307 L324,307 L324,308 L322,308 L322,309 L320,309 L320,310 L317,310 L317,311 L315,311 L315,312 L312,312 L312,313 L310,313 L310,314 L307,314 L307,315 L305,315 L305,316 L302,316 L302,317 L299,317 L299,318 L297,318 L297,319 L294,319 L294,320 L291,320 L291,321 L288,321 L288,322 L286,322 L286,323 L282,323 L282,324 L279,324 L279,325 L275,325 L275,326 L272,326 L272,327 L268,327 L268,328 L265,328 L265,329 L261,329 L261,330 L256,330 L256,331 L252,331 L252,332 L248,332 L248,333 L243,333 L243,334 L238,334 L238,335 L233,335 L233,336 L227,336 L227,337 L238,337 L238,336 L247,336 L247,335 L254,335 L254,334 L260,334 L260,333 L266,333 L266,332 L270,332 L270,331 L275,331 L275,330 L279,330 L279,329 L283,329 L283,328 L287,328 L287,327 L291,327 L291,326 L294,326 L294,325 L298,325 L298,324 L301,324 L301,323 L304,323 L304,322 L307,322 L307,321 L310,321 L310,320 L313,320 L313,319 L316,319 L316,318 L318,318 L318,317 L321,317 L321,316 L323,316 L323,315 L326,315 L326,314 L328,314 L328,313 L331,313 L331,312 L333,312 L333,311 L335,311 L335,310 L337,310 L337,309 L340,309 L340,308 L342,308 L342,307 L344,307 L344,306 L346,306 L346,305 L348,305 L348,304 L350,304 L350,303 L352,303 L352,302 L354,302 L354,301 L356,301 L356,300 L358,300 L358,299 L360,299 L360,298 L362,298 L362,297 L363,297 L363,296 L365,296 L365,295 L367,295 L367,294 L369,294 L369,293 L371,293 L371,292 L372,292 L372,291 L374,291 L374,290 L375,290 L375,289 L377,289 L377,288 L379,288 L379,287 L381,287 L381,286 L382,286 L382,285 L384,285 L384,284 L385,284 L385,283 L387,283 L387,282 L389,282 L389,281 L390,281 L390,280 L391,280 L391,279 L393,279 L393,278 L394,278 L394,277 L396,277 L396,276 L397,276 L397,275 L399,275 L399,274 L400,274 L400,273 L402,273 L402,272 L403,272 L403,271 L405,271 L405,270 L406,270 L406,269 L407,269 L407,268 L409,268 L409,267 L410,267 L410,266 L411,266 L411,265 L413,265 L413,264 L414,264 L414,263 L415,263 L415,262 L417,262 L417,261 L418,261 L418,260 L419,260 L419,259 L421,259 L421,258 L422,258 L422,257 L423,257 L423,256 L424,256 L424,255 L426,255 L426,254 L427,254 L427,253 L428,253 L428,252 L429,252 L429,251 L431,251 L431,250 L432,250 L432,249 L433,249 L433,248 L434,248 L434,247 L435,247 L435,246 L437,246 L437,245 L438,245 L438,244 L439,244 L439,243 L440,243 L440,242 L441,242 L441,241 L442,241 L442,240 L444,240 L444,239 L445,239 L445,238 L446,238 L446,237 L447,237 L447,236 L448,236 L448,235 L449,235 L449,234 L450,234 L450,233 L451,233 L451,232 L453,232 L453,231 L454,231 L454,230 L455,230 L455,229 L456,229 L456,228 L457,228 L457,227 L458,227 L458,226 L459,226 L459,225 L460,225 L460,224 L461,224 L461,223 L462,223 L462,222 L463,222 L463,221 L464,221 L464,220 L465,220 L465,219 L466,219 L466,218 L467,218 L467,217 L468,217 L468,216 L469,216 L469,215 L470,215 L470,214 L471,214 L471,213 L472,213 L472,212 L473,212 L473,211 L474,211 L474,210 L475,210 L475,209 L476,209 L476,208 L477,208 L477,207 L479,207 L479,205 L480,205 L480,204 L481,204 L481,203 L482,203 L482,202 L483,202 L483,201 L484,201 L484,200 L485,200 L485,199 L486,199 L486,198 L487,198 L487,197 L488,197 L488,196 L489,196 L489,195 L490,195 L490,194 L491,194 L491,193 L492,193 L492,192 L493,192 L493,191 L494,191 L494,190 Z M455,237 L455,238 L454,238 L454,239 L453,239 L453,240 L452,240 L452,241 L451,241 L451,242 L450,242 L450,243 L449,243 L449,244 L448,244 L448,245 L446,245 L446,246 L445,246 L445,247 L444,247 L444,248 L443,248 L443,249 L442,249 L442,250 L440,250 L440,251 L439,251 L439,252 L438,252 L438,253 L437,253 L437,254 L436,254 L436,255 L435,255 L435,256 L433,256 L433,257 L432,257 L432,258 L431,258 L431,259 L430,259 L430,260 L428,260 L428,261 L427,261 L427,262 L426,262 L426,263 L425,263 L425,264 L423,264 L423,265 L422,265 L422,266 L421,266 L421,267 L420,267 L420,283 L419,283 L419,293 L418,293 L418,299 L417,299 L417,304 L416,304 L416,308 L415,308 L415,312 L414,312 L414,315 L413,315 L413,317 L412,317 L412,320 L411,320 L411,322 L410,322 L410,324 L409,324 L409,326 L408,326 L408,328 L407,328 L407,329 L406,329 L406,331 L405,331 L405,332 L404,332 L404,334 L403,334 L403,335 L402,335 L402,336 L401,336 L401,337 L400,337 L400,338 L399,338 L399,339 L398,339 L398,340 L397,340 L397,341 L396,341 L396,342 L395,342 L395,343 L394,343 L394,344 L392,344 L392,345 L391,345 L391,346 L390,346 L390,347 L389,347 L389,348 L387,348 L387,349 L386,349 L386,350 L384,350 L384,351 L382,351 L382,352 L380,352 L380,353 L378,353 L378,354 L376,354 L376,355 L374,355 L374,356 L372,356 L372,357 L369,357 L369,358 L366,358 L366,359 L362,359 L362,360 L358,360 L358,361 L353,361 L353,362 L345,362 L345,363 L315,363 L315,362 L308,362 L308,361 L304,361 L304,360 L301,360 L301,359 L299,359 L299,358 L297,358 L297,357 L295,357 L295,356 L293,356 L293,355 L292,355 L292,354 L291,354 L291,353 L290,353 L290,352 L289,352 L289,350 L288,350 L288,344 L287,344 L287,335 L284,335 L284,336 L280,336 L280,337 L275,337 L275,338 L270,338 L270,339 L265,339 L265,340 L258,340 L258,341 L252,341 L252,342 L248,342 L248,354 L247,354 L247,359 L246,359 L246,362 L245,362 L245,364 L244,364 L244,365 L243,365 L243,366 L242,366 L242,367 L241,367 L241,368 L236,368 L236,369 L225,369 L225,370 L224,370 L224,373 L225,373 L225,374 L228,374 L228,375 L231,375 L231,374 L260,374 L260,373 L272,373 L272,374 L288,374 L288,375 L300,375 L300,376 L314,376 L314,377 L344,377 L344,376 L354,376 L354,375 L361,375 L361,374 L366,374 L366,373 L371,373 L371,372 L375,372 L375,371 L378,371 L378,370 L382,370 L382,369 L384,369 L384,368 L387,368 L387,367 L390,367 L390,366 L392,366 L392,365 L395,365 L395,364 L397,364 L397,363 L399,363 L399,362 L401,362 L401,361 L403,361 L403,360 L405,360 L405,359 L406,359 L406,358 L408,358 L408,357 L410,357 L410,356 L411,356 L411,355 L413,355 L413,354 L415,354 L415,353 L416,353 L416,352 L417,352 L417,351 L418,351 L418,350 L420,350 L420,349 L421,349 L421,348 L422,348 L422,347 L423,347 L423,346 L424,346 L424,345 L425,345 L425,344 L426,344 L426,343 L427,343 L427,342 L428,342 L428,341 L429,341 L429,340 L430,340 L430,339 L431,339 L431,338 L432,338 L432,337 L433,337 L433,336 L434,336 L434,335 L435,335 L435,333 L436,333 L436,332 L437,332 L437,330 L438,330 L438,329 L439,329 L439,328 L440,328 L440,326 L441,326 L441,325 L442,325 L442,323 L443,323 L443,321 L444,321 L444,320 L445,320 L445,318 L446,318 L446,316 L447,316 L447,314 L448,314 L448,312 L449,312 L449,309 L450,309 L450,307 L451,307 L451,304 L452,304 L452,302 L453,302 L453,299 L454,299 L454,296 L455,296 L455,292 L456,292 L456,288 L457,288 L457,283 L458,283 L458,275 L459,275 L459,246 L458,246 L458,239 L457,239 L457,237 Z M199,258 L199,268 L200,268 L200,273 L201,273 L201,276 L202,276 L202,278 L203,278 L203,280 L204,280 L204,282 L205,282 L205,283 L206,283 L206,285 L207,285 L207,286 L208,286 L208,287 L209,287 L209,288 L210,288 L210,289 L211,289 L211,290 L212,290 L212,291 L213,291 L213,292 L214,292 L214,293 L215,293 L215,294 L217,294 L217,295 L218,295 L218,296 L220,296 L220,297 L221,297 L221,298 L223,298 L223,299 L225,299 L225,300 L227,300 L227,301 L230,301 L230,302 L232,302 L232,303 L236,303 L236,304 L240,304 L240,305 L244,305 L244,306 L251,306 L251,307 L276,307 L276,306 L283,306 L283,305 L289,305 L289,304 L294,304 L294,303 L297,303 L297,302 L301,302 L301,301 L304,301 L304,300 L307,300 L307,299 L310,299 L310,298 L313,298 L313,297 L315,297 L315,296 L318,296 L318,295 L320,295 L320,294 L323,294 L323,293 L325,293 L325,292 L327,292 L327,291 L329,291 L329,290 L332,290 L332,289 L333,289 L333,288 L336,288 L336,287 L338,287 L338,286 L339,286 L339,285 L341,285 L341,284 L343,284 L343,283 L345,283 L345,282 L347,282 L347,281 L348,281 L348,280 L350,280 L350,279 L352,279 L352,278 L353,278 L353,277 L351,277 L351,278 L349,278 L349,279 L347,279 L347,280 L344,280 L344,281 L342,281 L342,282 L340,282 L340,283 L337,283 L337,284 L335,284 L335,285 L332,285 L332,286 L330,286 L330,287 L327,287 L327,288 L324,288 L324,289 L321,289 L321,290 L318,290 L318,291 L315,291 L315,292 L312,292 L312,293 L309,293 L309,294 L305,294 L305,295 L302,295 L302,296 L297,296 L297,297 L293,297 L293,298 L288,298 L288,299 L282,299 L282,300 L274,300 L274,301 L251,301 L251,300 L244,300 L244,299 L240,299 L240,298 L236,298 L236,297 L234,297 L234,296 L231,296 L231,295 L229,295 L229,294 L227,294 L227,293 L225,293 L225,292 L223,292 L223,291 L222,291 L222,290 L221,290 L221,289 L219,289 L219,288 L218,288 L218,287 L217,287 L217,286 L216,286 L216,285 L215,285 L215,284 L214,284 L214,283 L213,283 L213,282 L212,282 L212,281 L211,281 L211,280 L210,280 L210,278 L209,278 L209,277 L208,277 L208,275 L207,275 L207,274 L206,274 L206,272 L205,272 L205,270 L204,270 L204,268 L203,268 L203,265 L202,265 L202,262 L201,262 L201,259 L200,259 L200,258 Z M355,275 L355,276 L356,276 L356,275 Z M353,276 L353,277 L355,277 L355,276 Z M188,291 L188,292 L189,292 L189,291 Z M189,292 L189,294 L190,294 L190,295 L191,295 L191,296 L192,296 L192,298 L193,298 L193,299 L194,299 L194,301 L195,301 L195,302 L196,302 L196,303 L197,303 L197,304 L198,304 L198,305 L199,305 L199,306 L200,306 L200,307 L201,307 L201,308 L202,308 L202,309 L203,309 L203,310 L204,310 L204,311 L206,311 L206,312 L207,312 L207,313 L208,313 L208,314 L210,314 L210,315 L212,315 L212,316 L214,316 L214,317 L216,317 L216,318 L219,318 L219,319 L222,319 L222,320 L225,320 L225,321 L230,321 L230,322 L240,322 L240,323 L242,323 L242,322 L256,322 L256,321 L262,321 L262,320 L267,320 L267,319 L272,319 L272,318 L276,318 L276,317 L280,317 L280,316 L283,316 L283,315 L279,315 L279,316 L274,316 L274,317 L268,317 L268,318 L239,318 L239,317 L233,317 L233,316 L229,316 L229,315 L224,315 L224,314 L222,314 L222,313 L219,313 L219,312 L216,312 L216,311 L214,311 L214,310 L212,310 L212,309 L210,309 L210,308 L208,308 L208,307 L207,307 L207,306 L205,306 L205,305 L204,305 L204,304 L203,304 L203,303 L201,303 L201,302 L200,302 L200,301 L198,301 L198,300 L197,300 L197,299 L196,299 L196,298 L195,298 L195,297 L194,297 L194,296 L193,296 L193,295 L192,295 L192,294 L191,294 L191,293 L190,293 L190,292 Z M284,314 L284,315 L285,315 L285,314 Z " fill="#000000" transform="translate(0,0)"/>
</svg>